# xmcd
#
# Track frame offsets:
#	150
#	23998
#	51954
#	71870
#	98017
#	121299
#	150605
#	173682
#	206021
#	239958
#	273535
#	291348
#
# Disc length: 4240 seconds
#
# Revision: 1
# Processed by: cddbd v1.5.2PL0 Copyright (c) Steve Scherf et al.
# Submitted via: EZCDAudioConverter 3.1.7.1
#
DISCID=b8108e0c
DTITLE=Frank Cottrell Boyce - Cosmic
DYEAR=2009
DGENRE=Books and Spoken
TTITLE0=Disc 4 Track 1
TTITLE1=Disc 4 Track 2
TTITLE2=Disc 4 Track 3
TTITLE3=Disc 4 Track 4
TTITLE4=Disc 4 Track 5
TTITLE5=Disc 4 Track 6
TTITLE6=Disc 4 Track 7
TTITLE7=Disc 4 Track 8
TTITLE8=Disc 4 Track 9
TTITLE9=Disc 4 Track 10
TTITLE10=Disc 4 Track 11
TTITLE11=Disc 4 Track 12
EXTD=
EXTT0=
EXTT1=
EXTT2=
EXTT3=
EXTT4=
EXTT5=
EXTT6=
EXTT7=
EXTT8=
EXTT9=
EXTT10=
EXTT11=
PLAYORDER=
